<?xml version="1.0" standalone="yes"?>
<svg xmlns="http://www.w3.org/2000/svg" width="1024" height="1024">
<path style="fill:#020101; stroke:none;" d="M0 0L0 1024L1024 1024L1024 0L0 0z"/>
<path style="fill:#d1ab57; stroke:none;" d="M431 489L513 489C519.333 489 525.667 489.043 532 488.999C534.516 488.982 538.072 489.374 539.397 486.682C541.545 482.317 540.505 474.222 534.981 473.434C532.065 473.017 528.937 473.914 526 473.985C519.008 474.156 511.994 474 505 474C485.644 474 466.281 473.16 447 473C444.303 451.658 447.608 430.212 446.623 408.83C446.342 402.709 444.429 393.831 446.742 388.039C449.103 382.129 457.213 377.138 462.015 373.192C471.883 365.083 481.499 356.379 491 347.831C496.303 343.06 501.471 338.112 507 333.596C509.355 331.672 511.793 329.351 515 330.662C521.909 333.487 528.513 341.948 534 346.925C545.896 357.715 557.84 368.505 570 379C575.44 383.695 585.908 390.228 588.436 397.174C590.762 403.567 589 413.24 589 420L589 470L589 514C589 518.011 590.58 526.371 586.682 528.972C583.148 531.331 576.065 530 572 530L535 530L440 530C424.744 530 406.863 527.461 392 531C393.298 525.535 392.55 520.209 392.694 514.656C393.024 502.005 392.591 489.603 392.039 477C391.005 453.338 393.473 429.66 392.975 406.015C392.744 395.012 393.017 384.014 393 373C392.993 368.741 391.536 362.996 393.238 359C396.386 351.611 406.118 345.602 411.91 340.299C427.697 325.85 443.949 311.87 460 297.714C473.091 286.169 485.894 274.264 499 262.714C502.473 259.654 508.725 250.954 514 251.768C518.51 252.463 523.646 258.982 527 261.87C538.587 271.846 549.525 282.598 561 292.714C577.151 306.954 592.701 321.933 609 336C616.002 342.043 627.759 349.423 631.647 358C633.19 361.405 632.339 365.391 632.455 369C632.735 377.677 633 386.302 633 395C633 424.048 632.714 453.039 632.026 482.04C631.719 494.968 633.058 508.003 632.999 521C632.967 528.139 630.945 535.764 633.303 542.772C634.762 547.106 645.238 547.323 648.397 544.821C650.12 543.456 649.958 540.966 649.995 538.996C650.09 534.001 650 528.996 650 524L650 462L650 384L650 361C650 357.597 650.613 353.38 649.258 350.17C647.894 346.939 644.479 344.39 641.999 342.036C636.143 336.476 630.092 331.019 624 325.718C604.03 308.342 584.977 289.922 565 272.576C552.458 261.685 540.075 250.367 528 238.964C524.527 235.685 518.224 227.624 513 227.752C507.693 227.881 502.585 235.586 499 238.83C486.329 250.295 473.764 261.92 460.925 273.199C440.096 291.497 419.081 309.856 399 328.961C392.564 335.085 380.183 341.701 376.742 350.089C375.406 353.349 376 357.555 376 361L376.001 381C376.078 404.952 376.294 428.896 376.266 452.845C376.239 476.221 377.41 500.002 376.141 523.326C375.848 528.71 373.324 543.833 380.059 545.682C385.137 547.077 391.757 546 397 546L433 546L550 546L590 546C593.741 546 601.386 547.434 604.204 544.397C607.641 540.694 605.002 530.668 605 526C604.993 508.61 606.05 491.329 605.079 473.985C604.756 468.228 605.783 462.705 605.88 457C606.124 442.691 606 428.341 606 414C606 405.901 607.592 395.636 604.298 388.015C601.347 381.189 592.41 375.665 587 370.834C574.356 359.544 561.829 348.072 549 337C540.906 330.014 533.029 322.78 525 315.714C521.85 312.942 518.295 308.043 514 307.086C509.719 306.133 505.857 311.11 503 313.576C494.159 321.21 485.82 329.436 477 337.105C466.913 345.876 457.058 354.909 447 363.715C442.204 367.915 434.95 372.184 432.028 378.001C430.525 380.992 431 384.759 431 388C431 394.321 431.213 400.685 430.925 407C429.688 434.172 431 461.766 431 489z"/>
<path style="fill:#020101; stroke:none;" d="M439 483L440 484L439 483M418 536C419.248 536.685 419.548 536.749 421 537C419.752 536.315 419.452 536.251 418 536M445 543L446 544L445 543z"/>
<path style="fill:#d1ab57; stroke:none;" d="M788 605C794.428 608.952 800.72 613.147 807 617.333C811.56 620.373 815.392 623.593 821 624C817.663 613.94 809.128 602.527 798 602.039C793.957 601.862 790.481 601.56 788 605M263 709L262 708C257.081 710.637 255.096 716.755 251.535 720.985C245.422 728.249 235.568 733.495 226 733.96C190.88 735.667 174.96 700.631 180.329 670C183.542 651.668 202.311 636.22 221 637.209C232.058 637.794 242.463 642.707 249.714 651.04C253.316 655.18 255.199 661.276 260 664C260 657.67 261.164 647.861 257.821 642.213C255.262 637.889 248.46 636.14 244 634.671C229.73 629.968 215.68 628.704 201 632.478C178.039 638.383 161.711 658.46 160.09 682C159.597 689.154 159.935 697.11 162.054 704C170.144 730.305 196.44 742.122 222 741.999C231.015 741.956 238.735 739.533 247 736.201C250.503 734.788 254.922 733.675 257.486 730.725C261.769 725.798 261.822 715.252 263 709M393 710C393 715.412 393.663 720.622 393.965 726C394.12 728.77 393.869 732.069 395.858 734.298C399.105 737.935 407.411 739.28 412 740.192C429.523 743.675 454.512 741.391 461.87 722C463.152 718.622 463.926 714.615 463.921 711C463.897 690.733 444.226 682.264 429 674.219C422.665 670.872 414.733 666.62 411.318 659.999C410.182 657.797 410.016 655.433 410.008 653C409.958 637.383 429.807 634.286 440.999 640.98C448.606 645.529 450.453 655.288 458 659C458.473 653.337 460.048 641.026 456.258 636.419C453.038 632.506 445.62 632.322 441 631.4C423.033 627.812 402.271 632.939 395.548 652C386.856 676.644 415.274 687.745 432 697.281C437.851 700.617 444.357 704.542 447.177 711C448.142 713.207 448.38 715.617 448.238 718C447.229 734.984 426.195 737.255 414 730.471C409.347 727.882 405.14 724.326 402.043 719.996C399.24 716.078 397.839 711.513 393 710M276 738C282.685 738.845 289.262 738.867 296 738.986C299.774 739.053 302.849 739.317 305 736C295.447 732.207 297.813 722.874 300.808 715C302.005 711.853 303.005 707.825 306.133 706.028C308.695 704.557 312.168 705.001 315 705L334 705C336.846 705.006 340.242 704.641 342.581 706.603C344.489 708.204 345.184 710.776 346.06 713C347.985 717.885 352.946 726.502 350.936 731.945C349.966 734.572 346.247 735.76 344 737C349.873 740.122 355.743 738.128 362.004 738.051C368.59 737.969 374.41 739.569 381 738L381 736C370.58 730.591 367.232 719.293 363.316 709C356.93 692.211 349.819 675.698 343.204 659L336.449 642C335.326 639.211 334.545 635.831 331.775 634.18C321.728 628.188 317.584 648.873 315.319 655C309.868 669.74 303.972 684.294 298.425 699C295.311 707.256 292.756 716.196 288.601 724C285.443 729.932 279.296 732.567 276 738M471 739C480.763 739 490.291 738.766 500 738C498.322 735.169 495.316 733.16 494.238 729.96C492.295 724.197 495.923 709.502 501.275 706.179C505.876 703.322 514.773 705 520 705C524.822 705 532.708 703.514 536.775 706.603C539.367 708.571 540.492 712.117 541.716 715C544.801 722.269 549.39 733.049 539 736C542.191 740.516 548.183 738.758 553 738.3C560.588 737.579 568.339 738.605 576 738C573.047 734.586 569.288 731.829 566.818 728C562.967 722.031 560.841 714.539 558.139 708C552.099 693.386 546.535 678.584 540.424 664C537.521 657.069 534.914 650.002 532.189 643C530.985 639.906 529.838 635.964 526.786 634.18C517.026 628.474 512.982 649.112 510.604 655C501.68 677.097 495.017 700.313 485.134 722C483.615 725.333 481.694 728.316 478.957 730.787C475.772 733.662 472.336 734.726 471 739M627 633C628.73 637.848 634.12 639.486 635.467 645.001C637.064 651.54 636 659.302 636 666L636 707C636 717.387 638.814 731.381 627 736C629.67 740.118 634.582 738.971 639 738.662C646.983 738.104 654.98 738.632 663 738C660.656 734.304 656.189 732.277 654.603 727.999C651.213 718.853 654 704.649 654 695C666.921 695 681.329 696.298 693 689.662C711.117 679.361 714.707 653.623 696.996 640.789C685.909 632.754 671.939 634.005 659 634C648.34 633.996 637.71 633 627 633M723 636C733.33 638.09 732.96 649.333 732.999 658C733.083 676.69 733 695.327 733 714C733 723.696 733.391 731.919 723 736L723 738C729.053 739.789 734.85 738.508 741 738.089C746.68 737.703 752.301 738.403 758 738C756.274 734.995 752.927 733.384 751.62 729.981C749.378 724.142 750.893 717.023 750.995 711C751.131 703.01 750.011 694.922 750.19 687C750.31 681.672 751.337 676.36 750.861 670.995C750.222 663.792 750.326 657.28 750.713 650.06C750.894 646.678 750.603 643 752.63 640.065C754.224 637.755 756.811 636.599 759 635C752.04 630.913 741.663 634.06 734 633.871C729.652 633.764 725.722 631.805 723 636M769 634C772.378 636.822 776.68 637.958 779.062 642.015C782.59 648.028 781 657.31 781 664L781 696C781 706.623 781.353 718.011 787.789 726.999C804.344 750.118 850.06 745.302 859.11 718C865.415 698.979 858.992 676.678 861.576 657C862.907 646.858 861.359 641.145 871 635C867.114 632.718 863.316 633.901 859 633.985C852.663 634.107 846.369 633 840 633C841.457 638.002 848.328 638.948 850.782 644C854.087 650.802 852 661.623 852 669C852 680.666 851.95 692.344 852.153 704C852.272 710.863 850.899 717.511 846.523 722.981C838.077 733.54 820.095 736.966 809.134 728.259C802.636 723.097 800.738 715.718 799.741 708C797.713 692.307 799 675.828 799 660C799 650.221 797.894 640.597 808 636L808 634C803.386 632.731 798.756 633.976 794 633.999C785.997 634.038 776.655 631.738 769 634z"/>
<path style="fill:#020101; stroke:none;" d="M655.318 641.028C650.675 644.126 652.88 657.986 653.084 662.911C653.223 666.275 653.926 669.634 653.817 673.001C653.683 677.175 652.357 682.673 654.567 686.57C656.037 689.163 659.408 688.972 662 688.995C668.089 689.051 674.768 688.217 679.996 684.867C698.498 673.008 690.352 644.135 670 640.464C666.18 639.776 658.729 638.751 655.318 641.028M857.667 648.333C857.222 648.778 858.278 648.722 858.333 648.667C858.778 648.222 857.722 648.278 857.667 648.333M518.333 654.667C518.278 654.722 518.222 655.778 518.667 655.333C518.722 655.278 518.778 654.222 518.333 654.667M736 655L737 656L736 655M322 656C318.273 669.937 311.26 682.907 308 697C317.399 699.778 328.282 697.424 338 698C339.099 693.491 337.324 690.203 335.66 686C333.014 679.319 330.566 672.604 327.719 666C326.182 662.435 325.178 658.338 322 656M402 656L403 657L402 656M517 657C514.633 670.748 506.053 683.099 504 697C513.618 698.944 523.6 696.166 533 698C534.969 688.522 526.291 675.7 522.8 667C521.317 663.304 520.362 659.294 517 657M856 658L857 659L856 658M739.667 670.333C739.222 670.778 740.278 670.722 740.333 670.667C740.778 670.222 739.722 670.278 739.667 670.333M703 671L704 672L703 671M736 677L737 678L736 677M544 690L545 691L544 690M173.667 701.333C173.222 701.778 174.278 701.722 174.333 701.667C174.778 701.222 173.722 701.278 173.667 701.333M493 708L494 709L493 708M544.667 712.333C544.222 712.778 545.278 712.722 545.333 712.667C545.778 712.222 544.722 712.278 544.667 712.333M556 712L557 713L556 712M743 714L744 715L743 714M187 720C188.139 721.016 188.612 721.309 190 722C188.777 720.805 188.58 720.684 187 720M398 720L399 721L398 720M396 722L397 723L396 722M287 731L288 732L287 731M805.667 731.333C805.223 731.777 806.278 731.722 806.333 731.667C806.778 731.222 805.722 731.278 805.667 731.333M846 731L847 732L846 731M550.667 734.333C550.222 734.778 551.278 734.722 551.333 734.667C551.778 734.222 550.722 734.278 550.667 734.333M562 735L563 736L562 735M433.667 736.333C433.222 736.778 434.278 736.722 434.333 736.667C434.778 736.222 433.722 736.278 433.667 736.333z"/>
</svg>
