<svg viewBox="0 0 1920 1080" width="1920" height="1080" xmlns="http://www.w3.org/2000/svg"><rect width="1920" height="1080" fill="transparent"></rect><path d="M 0 0 A 120 120 1 0 0 120 120 L 120 0 Z" fill="#2F2F2F"></path><path d="M 0 360 A 120 120 1 0 0 120 240 L 0 240 Z" fill="#3A3527"></path><path d="M 0 600 A 120 120 0 0 1 120 720 L 0 720 Z" fill="#2F2F2F"></path><path d="M 0 840 A 120 120 1 0 0 120 960 L 120 840 Z" fill="#252525"></path><rect x="0" y="960" width="120" height="120" fill="#2F2F2F"></rect><path d="M 120 120 A 120 120 1 0 0 240 240 L 240 120 Z" fill="#3A3527"></path><path d="M 240,240 A 120,120 1 0 0 120,360 L 240,360 Z" fill="#3A3527"></path><path d="M 120 360 A 120 120 1 0 0 240 480 L 240 360 Z" fill="#3A3527"></path><rect x="120" y="600" width="120" height="120" fill="#3A3527"></rect><path d="M 240,720 A 120,120 1 0 0 120,840 L 240,840 Z" fill="#3A3527"></path><path d="M 120 840 A 120 120 0 0 1 240 960 L 120 960 Z" fill="#3A3527"></path><path d="M 120 960 A 120 120 1 0 0 240 1080 L 240 960 Z" fill="#252525"></path><path d="M 240 480 A 120 120 1 0 0 360 360 L 240 360 Z" fill="#3A3527"></path><path d="M 240 960 A 120 120 1 0 0 360 840 L 240 840 Z" fill="#3A3527"></path><path d="M 240 960 A 120 120 1 0 0 360 1080 L 360 960 Z" fill="#2F2F2F"></path><path d="M 360 360 A 120 120 1 0 0 480 240 L 360 240 Z" fill="#252525"></path><path d="M 360 360 A 120 120 1 0 0 480 480 L 480 360 Z" fill="#2F2F2F"></path><path d="M 360 600 A 120 120 1 0 0 480 720 L 480 600 Z" fill="#252525"></path><rect x="360" y="720" width="120" height="120" fill="#2F2F2F"></rect><path d="M 600,0 A 120,120 1 0 0 480,120 L 600,120 Z" fill="#3A3527"></path><path d="M 600,240 A 120,120 1 0 0 480,360 L 600,360 Z" fill="#3A3527"></path><path d="M 600,360 A 120,120 1 0 0 480,480 L 600,480 Z" fill="#2F2F2F"></path><rect x="480" y="480" width="120" height="120" fill="#2F2F2F"></rect><path d="M 480 600 A 120 120 0 0 1 600 720 L 480 720 Z" fill="#252525"></path><path d="M 600 360 A 120 120 1 0 0 720 240 L 600 240 Z" fill="#2F2F2F"></path><path d="M 600 360 A 120 120 0 0 1 720 480 L 600 480 Z" fill="#252525"></path><path d="M 720,720 A 120,120 1 0 0 600,840 L 720,840 Z" fill="#2F2F2F"></path><rect x="600" y="960" width="120" height="120" fill="#252525"></rect><path d="M 720 0 A 120 120 1 0 0 840 120 L 840 0 Z" fill="#252525"></path><path d="M 720 360 A 120 120 1 0 0 840 240 L 720 240 Z" fill="#252525"></path><path d="M 840,360 A 120,120 1 0 0 720,480 L 840,480 Z" fill="#3A3527"></path><path d="M 720 480 A 120 120 1 0 0 840 600 L 840 480 Z" fill="#3A3527"></path><path d="M 720 720 A 120 120 0 0 1 840 840 L 720 840 Z" fill="#252525"></path><path d="M 720 840 A 120 120 1 0 0 840 960 L 840 840 Z" fill="#2F2F2F"></path><rect x="720" y="960" width="120" height="120" fill="#252525"></rect><rect x="840" y="0" width="120" height="120" fill="#252525"></rect><path d="M 840 120 A 120 120 1 0 0 960 240 L 960 120 Z" fill="#2F2F2F"></path><rect x="840" y="360" width="120" height="120" fill="#2F2F2F"></rect><path d="M 840 480 A 120 120 0 0 1 960 600 L 840 600 Z" fill="#252525"></path><path d="M 960,600 A 120,120 1 0 0 840,720 L 960,720 Z" fill="#2F2F2F"></path><path d="M 840 960 A 120 120 1 0 0 960 840 L 840 840 Z" fill="#2F2F2F"></path><path d="M 960 600 A 120 120 1 0 0 1080 480 L 960 480 Z" fill="#3A3527"></path><path d="M 960 600 A 120 120 0 0 1 1080 720 L 960 720 Z" fill="#2F2F2F"></path><path d="M 960 960 A 120 120 1 0 0 1080 1080 L 1080 960 Z" fill="#3A3527"></path><rect x="1080" y="240" width="120" height="120" fill="#2F2F2F"></rect><path d="M 1080 480 A 120 120 1 0 0 1200 600 L 1200 480 Z" fill="#3A3527"></path><path d="M 1080 720 A 120 120 1 0 0 1200 600 L 1080 600 Z" fill="#2F2F2F"></path><path d="M 1200,720 A 120,120 1 0 0 1080,840 L 1200,840 Z" fill="#252525"></path><rect x="1080" y="840" width="120" height="120" fill="#252525"></rect><path d="M 1200 0 A 120 120 1 0 0 1320 120 L 1320 0 Z" fill="#3A3527"></path><path d="M 1200 360 A 120 120 1 0 0 1320 240 L 1200 240 Z" fill="#3A3527"></path><path d="M 1200 480 A 120 120 0 0 1 1320 600 L 1200 600 Z" fill="#252525"></path><path d="M 1200 720 A 120 120 0 0 1 1320 840 L 1200 840 Z" fill="#3A3527"></path><path d="M 1440,120 A 120,120 1 0 0 1320,240 L 1440,240 Z" fill="#2F2F2F"></path><rect x="1320" y="240" width="120" height="120" fill="#3A3527"></rect><path d="M 1440,360 A 120,120 1 0 0 1320,480 L 1440,480 Z" fill="#252525"></path><rect x="1320" y="480" width="120" height="120" fill="#252525"></rect><path d="M 1320 720 A 120 120 0 0 1 1440 840 L 1320 840 Z" fill="#252525"></path><rect x="1320" y="840" width="120" height="120" fill="#252525"></rect><path d="M 1320 1080 A 120 120 1 0 0 1440 960 L 1320 960 Z" fill="#252525"></path><path d="M 1440 360 A 120 120 1 0 0 1560 240 L 1440 240 Z" fill="#252525"></path><path d="M 1440 360 A 120 120 1 0 0 1560 480 L 1560 360 Z" fill="#2F2F2F"></path><path d="M 1440 840 A 120 120 1 0 0 1560 720 L 1440 720 Z" fill="#3A3527"></path><path d="M 1440 960 A 120 120 1 0 0 1560 1080 L 1560 960 Z" fill="#2F2F2F"></path><path d="M 1680,240 A 120,120 1 0 0 1560,360 L 1680,360 Z" fill="#3A3527"></path><path d="M 1560 720 A 120 120 1 0 0 1680 600 L 1560 600 Z" fill="#252525"></path><path d="M 1560 720 A 120 120 1 0 0 1680 840 L 1680 720 Z" fill="#2F2F2F"></path><rect x="1560" y="960" width="120" height="120" fill="#252525"></rect><path d="M 1680 0 A 120 120 0 0 1 1800 120 L 1680 120 Z" fill="#2F2F2F"></path><path d="M 1680 120 A 120 120 1 0 0 1800 240 L 1800 120 Z" fill="#2F2F2F"></path><path d="M 1800,360 A 120,120 1 0 0 1680,480 L 1800,480 Z" fill="#252525"></path><path d="M 1680 600 A 120 120 1 0 0 1800 480 L 1680 480 Z" fill="#252525"></path><rect x="1680" y="720" width="120" height="120" fill="#252525"></rect><rect x="1680" y="840" width="120" height="120" fill="#3A3527"></rect><path d="M 1920,0 A 120,120 1 0 0 1800,120 L 1920,120 Z" fill="#2F2F2F"></path><rect x="1800" y="120" width="120" height="120" fill="#252525"></rect><path d="M 1800 360 A 120 120 0 0 1 1920 480 L 1800 480 Z" fill="#252525"></path><path d="M 1800 600 A 120 120 0 0 1 1920 720 L 1800 720 Z" fill="#252525"></path><path d="M 1800 840 A 120 120 1 0 0 1920 720 L 1800 720 Z" fill="#252525"></path></svg>