<svg viewBox="0 0 1920 1080" width="1920" height="1080" xmlns="http://www.w3.org/2000/svg"><rect width="1920" height="1080" fill="transparent"></rect><path d="M 0 240 A 120 120 1 0 0 120 120 L 0 120 Z" fill="#000000"></path><rect x="0" y="240" width="120" height="120" fill="#6D6F06"></rect><path d="M 0 480 A 120 120 0 0 1 120 600 L 0 600 Z" fill="#6D6F06"></path><path d="M 120 480 A 120 120 0 0 1 240 600 L 120 600 Z" fill="#FAFF01"></path><path d="M 240 480 A 120 120 1 0 0 360 600 L 360 480 Z" fill="#000000"></path><path d="M 360,720 A 120,120 1 0 0 240,840 L 360,840 Z" fill="#000000"></path><rect x="360" y="360" width="120" height="120" fill="#FAFF01"></rect><rect x="480" y="360" width="120" height="120" fill="#6D6F06"></rect><path d="M 480 840 A 120 120 1 0 0 600 960 L 600 840 Z" fill="#6D6F06"></path><path d="M 600 0 A 120 120 1 0 0 720 120 L 720 0 Z" fill="#6D6F06"></path><rect x="600" y="120" width="120" height="120" fill="#000000"></rect><path d="M 600 480 A 120 120 1 0 0 720 600 L 720 480 Z" fill="#FAFF01"></path><path d="M 720,960 A 120,120 1 0 0 600,1080 L 720,1080 Z" fill="#6D6F06"></path><path d="M 720 0 A 120 120 1 0 0 840 120 L 840 0 Z" fill="#FAFF01"></path><path d="M 840,240 A 120,120 1 0 0 720,360 L 840,360 Z" fill="#6D6F06"></path><path d="M 720 600 A 120 120 0 0 1 840 720 L 720 720 Z" fill="#6D6F06"></path><path d="M 720 720 A 120 120 0 0 1 840 840 L 720 840 Z" fill="#FAFF01"></path><rect x="720" y="840" width="120" height="120" fill="#6D6F06"></rect><path d="M 720 960 A 120 120 1 0 0 840 1080 L 840 960 Z" fill="#FAFF01"></path><rect x="840" y="600" width="120" height="120" fill="#FAFF01"></rect><path d="M 960 480 A 120 120 1 0 0 1080 360 L 960 360 Z" fill="#6D6F06"></path><path d="M 1080 120 A 120 120 1 0 0 1200 0 L 1080 0 Z" fill="#000000"></path><path d="M 1080 600 A 120 120 1 0 0 1200 720 L 1200 600 Z" fill="#000000"></path><path d="M 1200 480 A 120 120 1 0 0 1320 600 L 1320 480 Z" fill="#FAFF01"></path><path d="M 1200 720 A 120 120 0 0 1 1320 840 L 1200 840 Z" fill="#FAFF01"></path><rect x="1200" y="840" width="120" height="120" fill="#000000"></rect><path d="M 1320 480 A 120 120 0 0 1 1440 600 L 1320 600 Z" fill="#000000"></path><path d="M 1320 720 A 120 120 0 0 1 1440 840 L 1320 840 Z" fill="#000000"></path><path d="M 1320 960 A 120 120 1 0 0 1440 1080 L 1440 960 Z" fill="#000000"></path><rect x="1440" y="360" width="120" height="120" fill="#6D6F06"></rect><rect x="1560" y="120" width="120" height="120" fill="#FAFF01"></rect><path d="M 1680,360 A 120,120 1 0 0 1560,480 L 1680,480 Z" fill="#000000"></path><path d="M 1680 480 A 120 120 1 0 0 1800 360 L 1680 360 Z" fill="#6D6F06"></path><rect x="1680" y="480" width="120" height="120" fill="#6D6F06"></rect><path d="M 1680 840 A 120 120 1 0 0 1800 720 L 1680 720 Z" fill="#000000"></path><path d="M 1800 120 A 120 120 0 0 1 1920 240 L 1800 240 Z" fill="#000000"></path></svg>